<svg version="1" xmlns="http://www.w3.org/2000/svg" width="673.333" height="673.333" viewBox="0 0 505.000000 505.000000"><path d="M96.8 1.6C46.5 9.4 6.8 50.8 1 101.6c-.8 7-1 52.7-.8 157.4.4 160.7 0 149.7 5.9 168 10.1 31.5 36.3 58.8 68 70.7 19.4 7.3 6.9 6.8 179.9 6.8h155.5l9.8-2.7c20-5.5 37.8-15.8 52.2-30.3 14.5-14.4 24.8-32.2 30.3-52.2l2.7-9.8v-312l-2.2-8.7c-10.4-40.5-37.9-70.5-76.2-82.9C407.2-.1 411.5 0 251.5.1 133.9.2 103.8.5 96.8 1.6zm45 126.1c.5 1.6 5.8 16.1 11.7 32.3 5.9 16.2 13.3 37.4 16.5 47 3.1 9.6 6 17.5 6.5 17.5s3-6.6 5.5-14.6 10.1-30.4 17-49.7l12.5-35.2H250v158h-32.2l.5-40.3c.5-31 1-43.7 2.5-55.7 2.8-22.4 2.1-22-6.7 3.5-3.4 9.9-11.2 31.6-17.4 48.3L185.5 269l-9.8-.2-9.9-.3-10.9-29c-6-16-13.8-37.9-17.5-48.8-3.6-10.8-7-19.7-7.5-19.7-1.1 0-1.2-1.8 1.1 19.5 1.6 14.6 2 25.1 2 55.2V283h-31V125h38.8l1 2.7zm167.6 7.6c2.1 5.6 7.6 20.3 12.2 32.7 10.5 28 11.3 29.9 12.4 28 .4-.8 6.1-15.2 12.5-31.9s12.6-32.4 13.6-34.8l1.8-4.3h18.2c14.1 0 18 .3 17.6 1.2-.3.7-11.1 23.9-24.1 51.6L350 228.1V283h-34v-55.1l-23.6-50.2c-13-27.6-23.8-50.8-24.1-51.5-.4-.9 3.7-1.2 18.3-1.2h18.9l3.9 10.3zm11.1 185c1.7.9 4 2.5 5.3 3.4l2.3 1.9-3.5 4.1-3.5 4.1-4.8-2.5c-5.5-2.8-9.4-2.6-14.8.7-10.4 6.4-10.9 29.6-.7 36.8 5.6 4.1 13.9 3.5 19.3-1.4 1.5-1.4 2-1.1 5.3 2.7 4.1 4.9 3.9 5.5-3.3 9.7-4.1 2.4-5.6 2.7-13.6 2.7-7.4 0-9.8-.4-13.2-2.2-10.5-5.6-15.6-15.2-15.6-29.3 0-14.8 5.3-24.3 16.6-30 5.7-2.9 6.8-3.1 13.7-2.8 4.3.3 8.8 1.2 10.5 2.1zm55 .8c10.2 5.2 15 15.7 14.3 31.3-.6 13.9-5.9 23.4-15.7 28.3-5.5 2.8-20.2 2.5-25.7-.4-10.2-5.4-14.9-15.2-14.9-30.8.1-11.3 2.1-17.4 7.8-23.3 6-6.2 11.4-8.2 21.7-7.9 5.9.2 8.7.8 12.5 2.8zM97 349.2c5.1 16.7 9.6 30.9 9.8 31.6.3 1-1.2 1.2-6.9 1l-7.3-.3-.9-3.5c-.4-1.9-1.3-5.2-1.8-7.3l-1-3.8-10.2.3-10.2.3-1.9 7.2-1.9 7.3h-6.8c-5 0-6.7-.3-6.4-1.3.2-.6 4.5-14.5 9.6-30.7 5-16.2 9.3-29.8 9.6-30.3.2-.4 4.1-.7 8.7-.7h8.2l9.4 30.2zm55.5-27.2c6.3 3.3 9.5 8.9 9.5 16.7 0 13.7-7.1 20.2-23.5 21.2l-9 .6-.3 10.7-.3 10.8H116v-63.2l15.8.4c14.5.3 16.1.5 20.7 2.8zm53.6-2c2 .6 5.1 2 7 3.3 9.2 6.2 10.4 20.7 2.3 29.7-4.4 4.9-10.5 7-20.1 7H188v22h-14v-63h14.3c7.8 0 15.8.5 17.8 1zm59.9 30.5V382h-14v-63h14v31.5zm158.9-17c4 7.7 8.9 17.6 10.8 22 4.7 10.7 5.7 11.5 4.9 4-.4-3.3-.9-13.8-1.3-23.3l-.6-17.2H452v63.1l-7.2-.3-7.2-.3-11.5-22.7c-6.3-12.5-11.7-22.6-11.9-22.4-.2.2.1 4.7.7 10 .6 5.2 1.1 15.4 1.1 22.6v13h-13v-63.1l7.3.3 7.2.3 7.4 14z"/><path d="M356.4 330.4c-6.4 2.9-9.9 11.2-9.2 22 .8 12.2 5.8 18.8 14.4 19 9 .2 14.4-7.7 14.4-20.9 0-12.4-4.6-19.9-13-21-1.9-.3-4.9.1-6.6.9zM75.1 341.8c-1.7 7.1-3.1 13.4-3.1 14 0 1.4 12.6 1.7 13.4.4.5-.9-5.3-25.3-6.4-26.5-.4-.5-2.1 5-3.9 12.1zM129.8 329.6c-.5.4-.8 5.2-.8 10.7v10l7.2-.5c6.5-.5 7.5-.9 10-3.7 4.4-4.9 3.4-12.6-1.9-15-3.2-1.5-13.6-2.6-14.5-1.5zM188 339.4V350h5.3c7.2 0 11.9-2.5 13.4-7.1 2.6-8-1.4-12.6-12-13.6l-6.7-.6v10.7z"/></svg>