<svg xmlns="http://www.w3.org/2000/svg" viewBox="0 0 205 24" width="205" height="24">
	<style>
		tspan { white-space:pre }
	</style>
	<path id="MY COMPANY " fill="#7D26CD" d="M14.25 17.3Q13.19 17.65 12.6 17.65Q10.83 17.65 10.62 17.23Q7.67 10.8 6.73 8.95Q6.64 9.63 6.25 12.07Q5.46 16.88 5.46 20.05Q5.46 20.82 5.58 22.13Q3.51 22.13 2.77 21.73Q2.06 21.3 2.06 20.55Q2.06 20.3 3.04 13.75Q4.04 7.2 4.04 4.63L4.04 4.5Q3.19 3.32 2.24 2.57Q3.33 1.92 4.87 1.92Q6.81 1.92 7.88 3.47Q8.94 5 12.04 11.9L13.39 14.85Q13.57 14.6 13.92 14.18Q21.12 5.15 21.33 1.92Q21.33 1.95 22.04 2Q22.74 2.02 23.54 2.25Q24.37 2.45 24.72 2.9Q25.1 3.32 25.19 3.75Q25.28 4.15 25.28 5.15Q25.28 6.13 24.31 11.77Q23.33 17.43 23.33 19.7Q23.33 21.95 23.75 22.77Q21.24 22.23 20.33 21.32Q19.41 20.4 19.41 18.77Q19.41 17.82 20 14.1Q20.62 10.38 20.86 8.15Q19.68 9.88 17.49 12.88Q15.34 15.88 14.9 16.45Q14.46 17 14.25 17.3ZM36.99 14.93Q36.52 18.3 36.52 20.13Q36.52 21.95 36.93 22.77Q34.43 22.23 33.51 21.32Q32.6 20.4 32.6 19.02Q32.6 17.63 33.04 15.05Q29.88 5.5 27.58 2.57Q28.79 1.92 30.12 1.92Q30.83 1.92 31.3 2.05Q31.8 2.15 32.27 2.55Q32.74 2.95 33.07 3.57Q33.42 4.2 33.84 5.4Q34.54 7.3 35.64 11.9L35.84 12.88Q38.56 9.3 40.24 6.13Q41.95 2.95 42.24 1.17Q44.46 2.22 44.46 4.02Q44.46 5.8 36.99 14.93ZM63.28 22.38Q59.8 22.38 57.44 20.13Q55.08 17.88 55.08 13.57Q55.08 8.77 58 5.4Q59.44 3.77 61.68 2.82Q63.96 1.85 66.91 1.85Q69.89 1.85 71.42 3.2Q72.98 4.52 72.98 6.35Q72.98 8.15 71.8 9.3Q70.62 10.42 68.73 10.42Q68.09 10.42 67.23 10.22Q67.85 9.57 68.32 8.38Q68.79 7.17 68.79 6.1Q68.79 5.02 68.2 4.35Q67.61 3.68 66.35 3.68Q64.4 3.68 62.83 5.2Q61.27 6.72 60.5 8.95Q59.74 11.17 59.74 13.55Q59.74 16.75 61.21 18.4Q62.69 20.05 64.99 20.05Q66.43 20.05 68 19.23Q69.56 18.4 70.98 16.88Q72.07 17.07 72.07 17.8Q70.95 19.52 69.32 20.6Q67.7 21.68 66.26 22.02Q64.81 22.38 63.28 22.38ZM91.75 10.75Q91.75 7.25 90.59 5.68Q89.47 4.1 87.5 4.1Q85.55 4.1 83.78 5.57Q82.04 7.02 81.04 9.25Q80.06 11.47 80.06 13.75Q80.06 16.88 81.27 18.88Q82.51 20.88 84.99 20.88Q87.05 20.88 88.62 19.35Q90.21 17.8 90.98 15.52Q91.75 13.25 91.75 10.75ZM92.28 19.9Q90.95 21.13 88.94 21.88Q86.97 22.63 84.61 22.63Q82.25 22.63 80.45 21.73Q78.68 20.82 77.61 19.32Q75.49 16.32 75.49 12.32Q75.49 8.32 77.82 5.2Q80.18 2.07 84.1 1.25Q84.34 1.3 84.55 1.45Q84.78 1.6 84.81 1.77Q81.01 4.13 80.21 8.17Q81.45 5.22 83.93 3.57Q86.44 1.9 89.3 1.9Q92.16 1.9 94.16 4Q96.2 6.07 96.2 10.02Q96.2 13.9 94.49 17Q93.6 18.65 92.28 19.9ZM111.92 17.3Q110.86 17.65 110.27 17.65Q108.5 17.65 108.29 17.23Q105.34 10.8 104.4 8.95Q104.31 9.63 103.93 12.07Q103.13 16.88 103.13 20.05Q103.13 20.82 103.25 22.13Q101.18 22.13 100.45 21.73Q99.74 21.3 99.74 20.55Q99.74 20.3 100.71 13.75Q101.72 7.2 101.72 4.63L101.72 4.5Q100.86 3.32 99.92 2.57Q101.01 1.92 102.54 1.92Q104.49 1.92 105.55 3.47Q106.61 5 109.71 11.9L111.07 14.85Q111.24 14.6 111.6 14.18Q118.8 5.15 119 1.92Q119 1.95 119.71 2Q120.42 2.02 121.22 2.25Q122.04 2.45 122.4 2.9Q122.78 3.32 122.87 3.75Q122.96 4.15 122.96 5.15Q122.96 6.13 121.98 11.77Q121.01 17.43 121.01 19.7Q121.01 21.95 121.42 22.77Q118.91 22.23 118 21.32Q117.09 20.4 117.09 18.77Q117.09 17.82 117.68 14.1Q118.29 10.38 118.53 8.15Q117.35 9.88 115.17 12.88Q113.01 15.88 112.57 16.45Q112.13 17 111.92 17.3ZM130.54 22.43Q128.86 22.43 128.12 21.93Q127.38 21.43 127.38 20.25Q127.38 19.07 128.35 13.15Q129.36 7.2 129.36 4.68Q129.36 2.13 128.94 1.35Q131.95 1.55 132.9 3.35Q135.17 2.3 137.88 2.3Q140.63 2.3 142.19 3.75Q143.78 5.18 143.78 7.27Q143.78 9.88 141.54 11.97Q140.45 12.97 138.71 13.6Q137 14.22 134.9 14.22Q134.02 14.22 133.22 14.13L133.13 13.07Q133.25 13.07 133.37 13.07Q136.7 13.07 138.68 10.97Q140.04 9.47 140.04 7.82Q140.04 5.4 137.71 4.63Q135.73 4 133.28 4.88L133.28 4.93Q133.28 5.88 132.43 11.15Q131.6 16.4 131.6 19.93Q131.6 21.5 131.78 22.38Q130.83 22.43 130.54 22.43ZM142.75 20.9Q142.75 20.43 144.46 17.35Q146.17 14.27 148.33 10.38Q150.51 6.45 151.28 4.68L151.81 3.45Q151.57 3.1 150.66 2.17Q151.72 1.88 152.49 1.88Q153.28 1.88 153.78 1.97Q154.31 2.07 154.7 2.32Q155.11 2.55 155.41 2.8Q155.73 3.05 156 3.55Q156.26 4.02 156.44 4.43Q156.62 4.8 156.82 5.5Q157.06 6.2 157.18 6.72Q157.32 7.22 157.53 8.15Q157.77 9.05 158 9.9Q158.24 10.75 158.83 13.15Q159.42 15.52 159.74 16.73Q160.1 17.9 160.72 19.38Q161.36 20.85 162.07 21.7Q160.36 22.4 159.3 22.4Q158.24 22.4 157.74 21.95Q157.23 21.48 156.88 20.55Q156.53 19.6 155.49 15.5Q154.82 16 153.28 16.05L148.24 16.2Q146.44 19.93 145.58 22.82Q142.75 21.98 142.75 20.9ZM153.16 6.77Q152.75 7.57 151.33 10.2Q149.95 12.8 149.18 14.35L155.23 14.35Q153.84 8.95 153.16 6.77ZM168.92 11.9Q168.53 14.27 168.33 16.2Q168.12 18.13 168.12 19.48Q168.12 20.82 168.24 22.13Q166.17 22.13 165.44 21.73Q164.73 21.3 164.73 20.55Q164.73 20.32 165.7 13.85Q166.67 7.35 166.7 4.75L166.44 4.43Q165.7 3.5 164.49 2.88Q164.2 2.72 164.14 2.67Q165.55 1.95 166.85 1.95Q169.45 1.95 170.66 3.4Q171.87 4.82 175.17 10.47Q175.53 11.1 176.23 12.38Q176.97 13.63 177.41 14.4Q178.45 16.27 179.63 17.93Q179.71 16.95 180.42 11.95Q181.16 6.92 181.16 4Q181.16 3.22 181.04 1.97Q183.11 1.97 183.81 2.38Q184.52 2.77 184.52 3.5Q184.52 3.77 183.55 10.47Q182.58 17.18 182.58 19.75Q182.58 20.68 182.63 21.1Q182.87 21.27 183.4 21.52Q181.57 22.52 180.01 22.52Q178.45 22.52 177.29 21.05Q176.76 20.4 173.73 15.5Q170.72 10.57 169.45 8.65Q169.33 9.5 168.92 11.9ZM196.23 14.93Q195.76 18.3 195.76 20.13Q195.76 21.95 196.18 22.77Q193.67 22.23 192.75 21.32Q191.84 20.4 191.84 19.02Q191.84 17.63 192.28 15.05Q189.12 5.5 186.82 2.57Q188.03 1.92 189.36 1.92Q190.07 1.92 190.54 2.05Q191.04 2.15 191.51 2.55Q191.99 2.95 192.31 3.57Q192.66 4.2 193.08 5.4Q193.79 7.3 194.88 11.9L195.08 12.88Q197.8 9.3 199.48 6.13Q201.19 2.95 201.49 1.17Q203.7 2.22 203.7 4.02Q203.7 5.8 196.23 14.93Z" />
</svg>